<mxfile host="www.draw.io" modified="2019-10-18T01:07:31.638Z" agent="Mozilla/5.0 (Windows NT 10.0; Win64; x64) AppleWebKit/537.36 (KHTML, like Gecko) Chrome/77.0.3865.120 Safari/537.36" etag="23AA1LxTf5q7RrD3D1C0" version="12.1.3" type="github" pages="1">
  <diagram id="oT418DXnQhPOhI65B8Mf" name="Page-1">
    <mxGraphModel dx="1168" dy="750" grid="1" gridSize="10" guides="1" tooltips="1" connect="1" arrows="1" fold="1" page="1" pageScale="1" pageWidth="850" pageHeight="1100" math="0" shadow="0">
      <root>
        <mxCell id="0"/>
        <mxCell id="1" parent="0"/>
        <mxCell id="nD9XnW8ejQSP5rpcwGHg-1" value="&lt;&lt;interface&gt;&gt;&#xa;Shape" style="swimlane;fontStyle=1;align=center;verticalAlign=top;childLayout=stackLayout;horizontal=1;startSize=41;horizontalStack=0;resizeParent=1;resizeParentMax=0;resizeLast=0;collapsible=1;marginBottom=0;" vertex="1" parent="1">
          <mxGeometry x="280" y="80" width="280" height="101" as="geometry"/>
        </mxCell>
        <mxCell id="nD9XnW8ejQSP5rpcwGHg-2" value="- field: type" style="text;strokeColor=none;fillColor=none;align=left;verticalAlign=top;spacingLeft=4;spacingRight=4;overflow=hidden;rotatable=0;points=[[0,0.5],[1,0.5]];portConstraint=eastwest;" vertex="1" parent="nD9XnW8ejQSP5rpcwGHg-1">
          <mxGeometry y="41" width="280" height="26" as="geometry"/>
        </mxCell>
        <mxCell id="nD9XnW8ejQSP5rpcwGHg-3" value="" style="line;strokeWidth=1;fillColor=none;align=left;verticalAlign=middle;spacingTop=-1;spacingLeft=3;spacingRight=3;rotatable=0;labelPosition=right;points=[];portConstraint=eastwest;" vertex="1" parent="nD9XnW8ejQSP5rpcwGHg-1">
          <mxGeometry y="67" width="280" height="8" as="geometry"/>
        </mxCell>
        <mxCell id="nD9XnW8ejQSP5rpcwGHg-4" value="+ draw(type): type" style="text;strokeColor=none;fillColor=none;align=left;verticalAlign=top;spacingLeft=4;spacingRight=4;overflow=hidden;rotatable=0;points=[[0,0.5],[1,0.5]];portConstraint=eastwest;" vertex="1" parent="nD9XnW8ejQSP5rpcwGHg-1">
          <mxGeometry y="75" width="280" height="26" as="geometry"/>
        </mxCell>
        <mxCell id="nD9XnW8ejQSP5rpcwGHg-13" style="edgeStyle=orthogonalEdgeStyle;rounded=0;orthogonalLoop=1;jettySize=auto;html=1;exitX=0.5;exitY=0;exitDx=0;exitDy=0;entryX=0.507;entryY=1;entryDx=0;entryDy=0;entryPerimeter=0;endArrow=block;endFill=0;strokeWidth=2;" edge="1" parent="1" source="nD9XnW8ejQSP5rpcwGHg-9" target="nD9XnW8ejQSP5rpcwGHg-4">
          <mxGeometry relative="1" as="geometry"/>
        </mxCell>
        <mxCell id="nD9XnW8ejQSP5rpcwGHg-9" value="&lt;&lt;abstract&gt;&gt;&#xa;Quad" style="swimlane;fontStyle=0;childLayout=stackLayout;horizontal=1;startSize=26;fillColor=none;horizontalStack=0;resizeParent=1;resizeParentMax=0;resizeLast=0;collapsible=1;marginBottom=0;" vertex="1" parent="1">
          <mxGeometry x="355" y="220" width="140" height="52" as="geometry"/>
        </mxCell>
        <mxCell id="nD9XnW8ejQSP5rpcwGHg-20" style="edgeStyle=orthogonalEdgeStyle;rounded=0;orthogonalLoop=1;jettySize=auto;html=1;exitX=0.5;exitY=0;exitDx=0;exitDy=0;entryX=0.5;entryY=1;entryDx=0;entryDy=0;endArrow=block;endFill=1;strokeWidth=2;" edge="1" parent="1" source="nD9XnW8ejQSP5rpcwGHg-14" target="nD9XnW8ejQSP5rpcwGHg-9">
          <mxGeometry relative="1" as="geometry"/>
        </mxCell>
        <mxCell id="nD9XnW8ejQSP5rpcwGHg-14" value="Square" style="swimlane;fontStyle=0;childLayout=stackLayout;horizontal=1;startSize=26;fillColor=none;horizontalStack=0;resizeParent=1;resizeParentMax=0;resizeLast=0;collapsible=1;marginBottom=0;" vertex="1" parent="1">
          <mxGeometry x="30" y="320" width="120" height="52" as="geometry"/>
        </mxCell>
        <mxCell id="nD9XnW8ejQSP5rpcwGHg-21" style="edgeStyle=orthogonalEdgeStyle;rounded=0;orthogonalLoop=1;jettySize=auto;html=1;exitX=0.5;exitY=0;exitDx=0;exitDy=0;entryX=0.5;entryY=1;entryDx=0;entryDy=0;endArrow=block;endFill=1;strokeWidth=2;" edge="1" parent="1" source="nD9XnW8ejQSP5rpcwGHg-15" target="nD9XnW8ejQSP5rpcwGHg-9">
          <mxGeometry relative="1" as="geometry"/>
        </mxCell>
        <mxCell id="nD9XnW8ejQSP5rpcwGHg-15" value="Parallelogram" style="swimlane;fontStyle=0;childLayout=stackLayout;horizontal=1;startSize=26;fillColor=none;horizontalStack=0;resizeParent=1;resizeParentMax=0;resizeLast=0;collapsible=1;marginBottom=0;" vertex="1" parent="1">
          <mxGeometry x="190" y="320" width="120" height="52" as="geometry"/>
        </mxCell>
        <mxCell id="nD9XnW8ejQSP5rpcwGHg-25" style="edgeStyle=orthogonalEdgeStyle;rounded=0;orthogonalLoop=1;jettySize=auto;html=1;exitX=0.5;exitY=0;exitDx=0;exitDy=0;endArrow=block;endFill=1;strokeWidth=2;" edge="1" parent="1" source="nD9XnW8ejQSP5rpcwGHg-17">
          <mxGeometry relative="1" as="geometry">
            <mxPoint x="425" y="270" as="targetPoint"/>
          </mxGeometry>
        </mxCell>
        <mxCell id="nD9XnW8ejQSP5rpcwGHg-17" value="Trapezoid" style="swimlane;fontStyle=0;childLayout=stackLayout;horizontal=1;startSize=26;fillColor=none;horizontalStack=0;resizeParent=1;resizeParentMax=0;resizeLast=0;collapsible=1;marginBottom=0;" vertex="1" parent="1">
          <mxGeometry x="365" y="320" width="120" height="52" as="geometry"/>
        </mxCell>
        <mxCell id="nD9XnW8ejQSP5rpcwGHg-22" style="edgeStyle=orthogonalEdgeStyle;rounded=0;orthogonalLoop=1;jettySize=auto;html=1;exitX=0.5;exitY=0;exitDx=0;exitDy=0;entryX=0.5;entryY=1;entryDx=0;entryDy=0;endArrow=block;endFill=1;strokeWidth=2;" edge="1" parent="1" source="nD9XnW8ejQSP5rpcwGHg-18" target="nD9XnW8ejQSP5rpcwGHg-9">
          <mxGeometry relative="1" as="geometry"/>
        </mxCell>
        <mxCell id="nD9XnW8ejQSP5rpcwGHg-18" value="Rhombus" style="swimlane;fontStyle=0;childLayout=stackLayout;horizontal=1;startSize=26;fillColor=none;horizontalStack=0;resizeParent=1;resizeParentMax=0;resizeLast=0;collapsible=1;marginBottom=0;" vertex="1" parent="1">
          <mxGeometry x="530" y="320" width="120" height="52" as="geometry"/>
        </mxCell>
        <mxCell id="nD9XnW8ejQSP5rpcwGHg-24" style="edgeStyle=orthogonalEdgeStyle;rounded=0;orthogonalLoop=1;jettySize=auto;html=1;exitX=0.5;exitY=0;exitDx=0;exitDy=0;entryX=0.5;entryY=1;entryDx=0;entryDy=0;endArrow=block;endFill=1;strokeWidth=2;" edge="1" parent="1" source="nD9XnW8ejQSP5rpcwGHg-19" target="nD9XnW8ejQSP5rpcwGHg-9">
          <mxGeometry relative="1" as="geometry"/>
        </mxCell>
        <mxCell id="nD9XnW8ejQSP5rpcwGHg-19" value="Rectangle" style="swimlane;fontStyle=0;childLayout=stackLayout;horizontal=1;startSize=26;fillColor=none;horizontalStack=0;resizeParent=1;resizeParentMax=0;resizeLast=0;collapsible=1;marginBottom=0;" vertex="1" parent="1">
          <mxGeometry x="690" y="320" width="120" height="52" as="geometry"/>
        </mxCell>
      </root>
    </mxGraphModel>
  </diagram>
</mxfile>
